<?xml version="1.0" standalone="no"?>
<!DOCTYPE svg PUBLIC "-//W3C//DTD SVG 20010904//EN"
 "http://www.w3.org/TR/2001/REC-SVG-20010904/DTD/svg10.dtd">
<svg version="1.0" xmlns="http://www.w3.org/2000/svg"
 width="512.000000pt" height="512.000000pt" viewBox="0 0 512.000000 512.000000"
 preserveAspectRatio="xMidYMid meet">
<metadata>
Created by potrace 1.14, written by Peter Selinger 2001-2017
</metadata>
<g transform="translate(0.000000,512.000000) scale(0.100000,-0.100000)"
fill="#000000" stroke="none">
<path d="M2335 5110 c-127 -13 -249 -33 -330 -53 -11 -3 -41 -10 -68 -16 -126
-29 -427 -143 -494 -187 -12 -7 -27 -14 -33 -14 -6 0 -23 -8 -38 -18 -15 -10
-67 -43 -117 -72 -80 -47 -210 -136 -241 -165 -7 -5 -31 -25 -55 -44 -148
-116 -415 -419 -520 -592 -19 -30 -40 -64 -47 -75 -22 -35 -149 -298 -175
-364 -64 -163 -123 -389 -142 -545 -4 -27 -9 -61 -12 -75 -9 -44 -11 -443 -2
-515 20 -176 27 -217 59 -350 28 -117 78 -275 116 -365 84 -198 220 -432 344
-589 l70 -89 -190 -444 c-249 -577 -235 -541 -213 -534 10 3 41 8 68 12 28 5
52 9 55 9 3 1 28 5 55 10 28 4 59 9 70 11 24 5 165 30 215 39 19 3 71 12 115
20 44 8 100 17 125 20 24 4 47 8 50 10 3 2 25 6 48 10 24 3 78 12 120 20 95
18 128 24 167 30 17 3 40 7 51 9 12 2 39 7 60 10 22 4 46 8 54 11 8 2 35 6 60
10 25 3 63 10 85 14 31 6 55 2 105 -15 156 -54 375 -105 515 -119 33 -3 78 -8
100 -10 53 -6 353 -7 385 -1 14 2 55 7 92 11 37 3 77 8 90 10 58 10 145 26
168 31 14 3 35 7 46 9 193 41 491 163 699 286 284 169 541 403 743 676 159
217 304 508 377 758 30 104 71 287 80 360 3 28 10 84 15 125 9 78 6 465 -4
535 -51 339 -121 567 -252 828 -79 158 -223 381 -299 463 -5 6 -30 35 -55 65
-264 312 -664 582 -1065 718 -193 66 -344 102 -490 117 -33 4 -64 9 -69 11
-14 9 -415 11 -491 3z"/>
</g>
</svg>
